<?xml version="1.0" standalone="no"?><!DOCTYPE svg PUBLIC "-//W3C//DTD SVG 1.1//EN"
        "http://www.w3.org/Graphics/SVG/1.1/DTD/svg11.dtd">
<svg t="1699148408294" class="icon" viewBox="0 0 1024 1024" version="1.1" xmlns="http://www.w3.org/2000/svg" p-id="4072"
     xmlns:xlink="http://www.w3.org/1999/xlink" width="200" height="200">
    <path d="M859.776 128l95.808 670.656A128.192 128.192 0 0 1 832 960H192a128 128 0 0 1-123.584-161.344L164.224 128h695.552zM832 768H192a64 64 0 0 0-61.056 44.8l-2.88 20.544 0.384 6.144a64 64 0 0 0 56.064 56.064L192 896h640a64 64 0 0 0 64-62.4l-2.944-20.864a64.064 64.064 0 0 0-53.568-44.288L832 768z m-27.776-576H219.712L145.28 712.768C159.744 707.2 175.488 704 192 704h640c16.512 0 32.256 3.136 46.72 8.768L804.224 192z m-307.2 64c78.72 0 144.448 55.296 160.512 129.088a126.912 126.912 0 0 1-39.04 243.84l-9.408 0.384H392.512a104.512 104.512 0 0 1-58.688-191.04A164.288 164.288 0 0 1 497.024 256z m0 64C441.728 320 396.8 364.864 396.8 420.288l0.128 5.312 0.448 4.928 4.736 38.72-32.32 21.952a40.512 40.512 0 0 0 16.704 73.664l6.016 0.448 214.208 0.064 7.104-0.192A62.912 62.912 0 0 0 640 447.488l-6.784-3.2-30.976-12.8-7.168-32.768A100.352 100.352 0 0 0 497.088 320z"
          fill="#2C374D" p-id="4073"></path>
</svg>